<svg width="14" height="14" viewBox="0 0 14 14" fill="none" xmlns="http://www.w3.org/2000/svg">
<path d="M7 7.29166C6.45852 7.29166 5.93921 7.50676 5.55632 7.88965C5.17344 8.27253 4.95833 8.79184 4.95833 9.33332C4.95833 9.87481 5.17344 10.3941 5.55632 10.777C5.93921 11.1599 6.45852 11.375 7 11.375C7.54148 11.375 8.06079 11.1599 8.44368 10.777C8.82656 10.3941 9.04167 9.87481 9.04167 9.33332C9.04167 8.79184 8.82656 8.27253 8.44368 7.88965C8.06079 7.50676 7.54148 7.29166 7 7.29166ZM6.125 9.33332C6.125 9.10126 6.21719 8.8787 6.38128 8.7146C6.54537 8.55051 6.76793 8.45832 7 8.45832C7.23206 8.45832 7.45462 8.55051 7.61872 8.7146C7.78281 8.8787 7.875 9.10126 7.875 9.33332C7.875 9.56539 7.78281 9.78795 7.61872 9.95204C7.45462 10.1161 7.23206 10.2083 7 10.2083C6.76793 10.2083 6.54537 10.1161 6.38128 9.95204C6.21719 9.78795 6.125 9.56539 6.125 9.33332Z" fill="white"/>
<path d="M10.2235 2.98435L8.36908 0.38443L1.5505 5.8316L1.1725 5.82751V5.83335H0.875V12.8333H13.125V5.83335H12.5638L11.4473 2.56726L10.2235 2.98435ZM11.3312 5.83335H5.48158L9.8385 4.34818L10.7263 4.0641L11.3312 5.83335ZM9.07083 3.37751L4.57333 4.91051L8.13517 2.06501L9.07083 3.37751ZM2.04167 10.5986V8.06693C2.28777 7.97972 2.51131 7.83869 2.69599 7.65411C2.88067 7.46953 3.02182 7.24607 3.10917 7.00001H10.8908C10.9781 7.24616 11.1193 7.46972 11.304 7.65439C11.4886 7.83907 11.7122 7.98021 11.9583 8.06751V10.5992C11.7122 10.6865 11.4886 10.8276 11.304 11.0123C11.1193 11.197 10.9781 11.4205 10.8908 11.6667H3.11033C3.02294 11.4203 2.88165 11.1966 2.69676 11.0118C2.51188 10.827 2.28807 10.6859 2.04167 10.5986Z" fill="white"/>
</svg>
