<svg width="54" height="54" viewBox="0 0 54 54" fill="none" xmlns="http://www.w3.org/2000/svg">
<ellipse cx="27" cy="27" rx="27" ry="27" fill="white"/>
<mask id="mask0_25_9" style="mask-type:alpha" maskUnits="userSpaceOnUse" x="0" y="0" width="54" height="54">
<g clip-path="url(#clip0_25_9)">
<path d="M5.39999 49.68C5.39999 46.8157 6.53785 44.0686 8.56324 42.0433C10.5886 40.0179 13.3357 38.88 16.2 38.88H37.8C40.6643 38.88 43.4114 40.0179 45.4367 42.0433C47.4621 44.0686 48.6 46.8157 48.6 49.68C48.6 51.1122 48.0311 52.4857 47.0184 53.4984C46.0057 54.5111 44.6322 55.08 43.2 55.08H10.8C9.36782 55.08 7.99431 54.5111 6.98162 53.4984C5.96892 52.4857 5.39999 51.1122 5.39999 49.68Z" fill="black" stroke="black" stroke-width="1.5" stroke-linejoin="round"/>
<path d="M27 33.48C31.4735 33.48 35.1 29.8535 35.1 25.38C35.1 20.9065 31.4735 17.28 27 17.28C22.5265 17.28 18.9 20.9065 18.9 25.38C18.9 29.8535 22.5265 33.48 27 33.48Z" fill="black" stroke="black" stroke-width="1.5"/>
</g>
</mask>
<g mask="url(#mask0_25_9)">
<path d="M53 27C53 41.3594 41.3594 53 27 53C12.6406 53 1 41.3594 1 27C1 12.6406 12.6406 1 27 1C41.3594 1 53 12.6406 53 27Z" fill="black" stroke="white" stroke-width="2"/>
</g>
<defs>
<clipPath id="clip0_25_9">
<rect width="54" height="54" fill="white"/>
</clipPath>
</defs>
</svg>
