<svg width="14" height="14" viewBox="0 0 14 14" fill="none" xmlns="http://www.w3.org/2000/svg">
<path d="M8.75 6.41667V6.4225M3.01758 4.88717C2.76173 4.69053 2.56523 4.42698 2.4498 4.12564C2.33437 3.82431 2.3045 3.49693 2.3635 3.17968C2.42249 2.86243 2.56806 2.56767 2.7841 2.32798C3.00015 2.08829 3.27826 1.913 3.58769 1.82149C3.89713 1.72997 4.22584 1.72579 4.53751 1.80942C4.84917 1.89304 5.13164 2.06121 5.35371 2.29533C5.57577 2.52946 5.72878 2.82042 5.79582 3.13607C5.86286 3.45171 5.84132 3.77975 5.73358 4.08392" stroke="white" stroke-width="1.2" stroke-linecap="round" stroke-linejoin="round"/>
<path d="M9.33334 2.33334V4.55176C10.0552 4.96954 10.6049 5.63063 10.8838 6.41668H11.6661C11.8208 6.41668 11.9692 6.47814 12.0786 6.58753C12.188 6.69693 12.2494 6.8453 12.2494 7.00001V8.16668C12.2494 8.32139 12.188 8.46976 12.0786 8.57916C11.9692 8.68855 11.8208 8.75001 11.6661 8.75001H10.8833C10.6873 9.30418 10.3542 9.80001 9.91609 10.1926V11.375C9.91609 11.6071 9.8239 11.8296 9.65981 11.9937C9.49571 12.1578 9.27315 12.25 9.04109 12.25C8.80902 12.25 8.58646 12.1578 8.42237 11.9937C8.25827 11.8296 8.16609 11.6071 8.16609 11.375V11.0349C7.97334 11.0673 7.77821 11.0835 7.58275 11.0833H5.24942C5.05396 11.0835 4.85884 11.0673 4.66609 11.0349V11.375C4.66609 11.6071 4.5739 11.8296 4.40981 11.9937C4.24571 12.1578 4.02315 12.25 3.79109 12.25C3.55902 12.25 3.33646 12.1578 3.17237 11.9937C3.00827 11.8296 2.91609 11.6071 2.91609 11.375V10.1926C2.38756 9.72007 2.015 9.09819 1.8477 8.40926C1.68041 7.72034 1.72627 6.99685 1.97922 6.33456C2.23217 5.67227 2.68028 5.10241 3.26424 4.70041C3.8482 4.29841 4.54047 4.08323 5.24942 4.08334H6.70775L9.33334 2.33334Z" stroke="white" stroke-width="1.2" stroke-linecap="round" stroke-linejoin="round"/>
</svg>
